<svg height="512" viewBox="0 0 52 59" width="512" xmlns="http://www.w3.org/2000/svg"><g id="022---India-Location-Pin" fill="none"><path id="Shape" d="m10.37 13.48-3.49 4.73c-.27972587.4201147-.82866912.5659277-1.28.34l-.69-.44c-.45133088-.2259277-1.00027413-.0801147-1.28.34l-1.07 2.1c-.20266981.3242708-.20266981.7357292 0 1.06l1.72 2.3c.20498898.3466147.18207156.7823679-.05814478 1.1055681-.24021633.3232001-.6508575.4707803-1.04185522.3744319-1.89-.51-1.62-.64-2.86.59-.21921073.2188167-.32465319.5268607-.28551316.83411.03914004.3072493.21844423.5790198.48551316.73589l1.8 1.25c.33099944.2023942.51505917.5779781.47221458.9635794-.0428446.3856013-.30486029.7116212-.67221458.8364206-.27826563.0888979-.50374688.2950262-.61719239.5642189-.1134455.2691927-.10351121.5745318.02719239.8357811.72686919.9030884 1.73269585 1.5396431 2.86 1.81.50185734.2660698 1.09744528.2896085 1.61873561.0639754.52129034-.2256331.91176564-.6759754 1.06126439-1.2239754.11149263-.3287405.38549421-.5761433.72387385-.6536037.33837965-.0774604.69272321.0261044.93612615.2736037.39.4.65.59.66 1.06 0 1.66.26 8.07 2 11.53 2 4 5 8 5 11-.1037278.6448089.1292015 1.297916.6175571 1.7315596.4883556.4336435 1.1644266.5876985 1.7924429.4084404.3174332-.0476608.5926922-.2448057.74-.53.405075-.9305183 1.3060063-1.5479669 2.32-1.59.5329-.0628027.9212491-.5349999.88-1.07-.34-1.9 1.65-4.48 1.65-6.91-.0446885-1.4286143-.36737-2.8348264-.95-4.14-.1392108-.4244546.0199722-.8897586.39-1.14 1.9976687-1.383739 3.8593653-2.9541269 5.56-4.69 6.17-6.16 6-5.83 6-6.35.0539514-.8630071.4076555-1.6800635 1-2.31.43-.42 1.27-.33 1.83-.26.72.09 1.35-.87 1.13-1.56-.6694327-1.4974447-1.5930734-2.8676808-2.73-4.05-.364977-.4049989-.3382892-1.0277125.06-1.4l.93-.78c.30298-.3032856.765568-.3797132 1.15-.19 1.77 1.11 1.38 1.06 2.9.46.3451881-.1121364.724036-.0284373.989852.2186886.2658161.2471258.376865.6188777.290148.9713114l-.52 1.47c-.1231488.479825.1235585.9774932.58 1.17l2.31 1.5c.2550098.1287045.5528869.1422112.818498.0371132.2656112-.1050979.4735987-.3187668.571502-.5871132.58-1.62 1.74-5.18 1.74-7.32s2-2.74 2.86-2.95c.4333092-.1357475.7207659-.5463999.7-1v-1.75c.0941507-.6231953-.1268618-1.2525192-.59-1.68-.72-.59-2.62-1.19-5 .4-3 2-2.74 4.89-5.74 5.89-1.89.62-2.18-1.89-2.74-3.27-.1267379-.3090463-.399411-.5344082-.7267932-.600688s-.6662409.035275-.9032068.270688l-1.4 1.19c-.3032856.30298-.3797132.765568-.19 1.15l.56.78c.1897132.384432.1132856.84702-.19 1.15l-1.28 1.12c-.25927.2655008-.6442452.3655944-1 .26l-1.59-.48c-.4605608-.1491344-.9618094.0530499-1.19.48-.327404.616683-1.0912188.8534208-1.71.53-4.17-2.28-.71-.85-17.94-6.96z" fill="#4fba6f"/><path id="Shape" d="m18.36 8c.4739205-1.3542674 1.2986394-2.5585641 2.39-3.49.3516962-.33586597.410779-.87605081.14-1.28l-1-1.52c-.2797259-.42011466-.8286691-.56592772-1.28-.34l-2.61 1.3c-.384432.18971316-.84702.11328557-1.15-.19-2.34-2.35-2.33-2.48-2.85-2.48h-3.46c-.33262608-.00050114-.64372956.16442118-.83.44l-1.15 1.72c-.14789515.22124691-.20150024.49231949-.14894771.75320529.05255254.26088581.2069274.49006314.42894771.63679471l1.43 1c.42011466.27972587.56592772.82866912.34 1.28l-.11.17c-.21302546.42941594-.09137045.949596.29 1.24l3.21 2.39c.1999836.15165667.3356268.3729693.38.62z" fill="#4fba6f"/><path id="Shape" d="m14.62 25.35c-1.5107489 1.3972824-2.0111142 3.5774736-1.2608274 5.4936756.7502869 1.916202 2.597974 3.1770158 4.6558274 3.1770158s3.9055405-1.2608138 4.6558274-3.1770158c.7502868-1.916202.2499215-4.0963932-1.2608274-5.4936756z" fill="#35495e"/><path id="Shape" d="m26 15.66c0 3.14-4.42 9.6-6.68 12.69-.3056622.4110728-.7877401.6533563-1.3.6533563s-.9943378-.2422835-1.3-.6533563c-2.26-3.09-6.72-9.55-6.72-12.69.0419583-2.0776774.9091709-4.0532102 2.41016-5.4904073s3.5122994-2.21784985 5.58984-2.1695927c2.0775406-.04825715 4.0888509.7323956 5.58984 2.1695927s2.3682017 3.4127299 2.41016 5.4904073z" fill="#c03a2b"/><path id="Shape" d="m24.86 14.56c0 2.7-3.79 8.23-5.73 10.88-.2601838.3522262-.6720971.560061-1.11.560061s-.8498162-.2078348-1.11-.560061c-1.94-2.65-5.73-8.18-5.73-10.88.0765706-3.6926963 3.1271167-6.62694585 6.82-6.56 1.7804835-.04290948 3.5047846.6248441 4.7919731 1.85574155s2.0313289 2.92363605 2.0680269 4.70425845z" fill="#e64c3c"/><ellipse id="Oval" cx="18.02" cy="16" fill="#fff" rx="3.02" ry="3"/></g></svg>